<svg width="40" height="40" viewBox="0 0 40 40" fill="none" xmlns="http://www.w3.org/2000/svg">
<path fill-rule="evenodd" clip-rule="evenodd" d="M23.8356 7.04311C22.4284 7.27177 21.2575 8.22883 20.6428 9.64376L20.5812 9.79176L20.524 9.9416L20.3758 10.3908L17.036 10.3906L16.5092 20.4861L15.6627 20.6982L12.2446 22.8335L11.9768 22.5621H7.01717L7 22.5793V32.9829L7.01717 33H11.9783L11.9945 32.9839L11.991 32.5262L20.4659 31.6558L20.8912 31.5557L21.2685 31.4302C22.3619 31.0271 23.7216 30.1997 25.2897 28.9881L25.5048 28.8205L25.791 28.5935L25.8703 28.5662L32.9906 28.6131L33.0048 28.5979L32.022 10.3906L28.6234 10.3908L28.4883 9.97705L28.3494 9.62959C27.7038 8.16455 26.53 7.14781 24.4509 7L23.8356 7.04311ZM10.4836 24.0626V31.4978H8.50384V24.0626H10.4836ZM24.8373 20.1441L24.939 20.1697L25.0188 20.2336L25.0692 20.2764C25.1562 20.3626 25.2312 20.4746 25.2874 20.6024L25.326 20.701L25.3542 20.796L25.4051 20.9982L25.2494 21.137C24.7668 21.5671 22.4389 22.5366 20.0633 23.3072L19.7155 23.4185L19.3482 23.5325L18.4545 23.7921L18.2158 23.8881L18.076 23.967L17.9444 24.0636L17.7932 24.2089L17.7366 24.2791L17.6833 24.3594L17.5459 24.616C17.5062 24.7201 17.4798 24.8192 17.4651 24.9187L17.4542 25.0185L17.4503 25.1274L17.4884 27.3583L17.5015 27.54L17.5539 27.7484C17.7138 28.2217 18.1536 28.5865 18.6861 28.6994L18.787 28.7176L18.8805 28.7298L23.3113 28.6499L21.7332 29.5723C21.2521 29.836 20.8393 30.0179 20.4948 30.1155L20.3824 30.1449L20.265 30.1694L12.0425 31.0143L12.0545 24.5936L16.1289 22.1312L16.2018 22.1014L17.8614 21.6548L19.5883 21.2208C20.1675 21.0821 20.7486 20.9497 21.3314 20.8237L22.2067 20.6395L23.0842 20.4651L24.8373 20.1441ZM18.4671 11.8908H20.1599L20.1618 14.8603H21.6687L21.6666 11.8908H27.3277L27.3293 14.8603H28.8368L28.8345 11.8908H30.5929L31.4135 27.1145H18.9916L18.9196 25.2226L20.4174 24.7666L20.9126 24.6056L21.3703 24.4516C24.0657 23.5283 25.8469 22.6248 26.5062 21.8425C26.7427 21.5209 26.8649 21.1563 26.8649 20.7763C26.8649 20.4512 26.778 20.1243 26.6091 19.817C26.2529 19.1698 25.6113 18.7088 25.003 18.6433L24.9073 18.6363L24.8152 18.6355L24.7401 18.6408L23.0875 18.9414L22.1594 19.1292C21.5001 19.267 20.8203 19.4181 20.1099 19.585L19.6799 19.687L19.243 19.7926L18.0384 20.0904L18.4671 11.8908ZM24.5068 8.49026L24.8142 8.50963C25.4453 8.58893 26.0148 8.90574 26.4589 9.42074L26.5461 9.52638L26.636 9.64649L27.1147 10.3908H21.8828L22.3608 9.64905C22.8577 8.94522 23.575 8.53264 24.3724 8.49314L24.5068 8.49026Z" fill="#8FCA00"/>
</svg>
