<svg width="40" height="40" viewBox="0 0 40 40" fill="none" xmlns="http://www.w3.org/2000/svg">
<mask id="mask0" mask-type="alpha" maskUnits="userSpaceOnUse" x="9" y="7" width="22" height="26">
<path fill-rule="evenodd" clip-rule="evenodd" d="M24.3942 22.1998L15.612 22.1998L15.2867 22.2088L14.9331 22.2404C12.3957 22.546 10.3661 24.5115 10.0452 26.9227L10.0121 27.2541L10.0008 27.5865L9.99854 31.9996H11.7985L11.8008 27.5843L11.8129 27.2921L11.8507 26.9774C12.114 25.3624 13.3892 24.1025 15.0014 23.847L15.3075 23.811L15.6157 23.7996L24.4166 23.8003L24.6968 23.8129L25.0068 23.8533C26.5993 24.1371 27.8954 25.5264 28.1535 27.1986L28.1895 27.5152L28.2001 27.8145L28.1979 31.9996H29.9998L30 27.6115L29.991 27.2869L29.961 26.9503C29.6613 24.4417 27.6885 22.5401 25.1203 22.2413L24.7665 22.2106L24.3942 22.1998ZM20.0004 8.00043C16.4005 8.00043 13.4006 11.0003 13.4006 14.6002C13.4006 18.2001 16.4005 21.1999 20.0004 21.1999C23.6003 21.1999 26.6001 18.2001 26.6001 14.6002C26.6001 11.0003 23.6003 8.00043 20.0004 8.00043ZM20.0001 9.60042C22.8 9.60042 25 11.8003 25 14.6002C25 17.4001 22.8 19.6001 20.0001 19.6001C17.2002 19.6001 15.0003 17.4001 15.0003 14.6002C15.0003 11.8003 17.2002 9.60042 20.0001 9.60042Z" fill="#8FCA00"/>
<path d="M24.3942 22.1998L24.3986 22.0498H24.3942V22.1998ZM15.612 22.1998V22.0498L15.6078 22.0499L15.612 22.1998ZM15.2867 22.2088L15.2826 22.0586L15.2734 22.0594L15.2867 22.2088ZM14.9331 22.2404L14.9197 22.0909L14.9151 22.0915L14.9331 22.2404ZM10.0452 26.9227L9.89641 26.9029L9.89592 26.9078L10.0452 26.9227ZM10.0121 27.2541L9.86255 27.2392L9.86221 27.249L10.0121 27.2541ZM10.0008 27.5865L9.85076 27.5814L9.85076 27.5865L10.0008 27.5865ZM9.99854 31.9996L9.84854 31.9996L9.84846 32.1496H9.99854V31.9996ZM11.7985 31.9996V32.1496H11.9484L11.9485 31.9997L11.7985 31.9996ZM11.8008 27.5843L11.6508 27.5781L11.6508 27.5843L11.8008 27.5843ZM11.8129 27.2921L11.6635 27.2742L11.6631 27.2859L11.8129 27.2921ZM11.8507 26.9774L11.7025 26.9533L11.7017 26.9596L11.8507 26.9774ZM15.0014 23.847L14.9839 23.6979L14.9779 23.6989L15.0014 23.847ZM15.3075 23.811L15.3019 23.6607L15.29 23.6621L15.3075 23.811ZM15.6157 23.7996L15.6157 23.6495L15.6102 23.6497L15.6157 23.7996ZM24.4166 23.8003L24.4234 23.6503L24.4166 23.6503L24.4166 23.8003ZM24.6968 23.8129L24.7162 23.6637L24.7035 23.6631L24.6968 23.8129ZM25.0068 23.8533L25.0331 23.7055L25.0262 23.7046L25.0068 23.8533ZM28.1535 27.1986L28.3027 27.1816L28.3017 27.1757L28.1535 27.1986ZM28.1895 27.5152L28.3399 27.5099L28.3386 27.4983L28.1895 27.5152ZM28.2001 27.8145L28.3502 27.8146L28.3501 27.8092L28.2001 27.8145ZM28.1979 31.9996L28.0479 31.9995L28.0478 32.1496H28.1979V31.9996ZM29.9998 31.9996V32.1496H30.1498L30.1498 31.9996L29.9998 31.9996ZM30 27.6115L30.15 27.6115L30.1499 27.6073L30 27.6115ZM29.991 27.2869L30.1412 27.2828L30.1404 27.2737L29.991 27.2869ZM29.961 26.9503L30.1105 26.937L30.11 26.9325L29.961 26.9503ZM25.1203 22.2413L25.1376 22.0922L25.1332 22.0919L25.1203 22.2413ZM24.7665 22.2106L24.7794 22.0609L24.7708 22.0606L24.7665 22.2106ZM24.3942 22.0498L15.612 22.0498V22.3498L24.3942 22.3498V22.0498ZM15.6078 22.0499L15.2826 22.0589L15.2909 22.3587L15.6161 22.3498L15.6078 22.0499ZM15.2734 22.0594L14.9197 22.091L14.9464 22.3898L15.3001 22.3582L15.2734 22.0594ZM14.9151 22.0915C12.3133 22.4048 10.2268 24.4204 9.89649 26.9029L10.1939 26.9424C10.5053 24.6025 12.4781 22.6872 14.951 22.3893L14.9151 22.0915ZM9.89592 26.9078L9.86286 27.2392L10.1614 27.269L10.1944 26.9375L9.89592 26.9078ZM9.86221 27.249L9.85084 27.5814L10.1507 27.5917L10.162 27.2592L9.86221 27.249ZM9.85076 27.5865L9.84854 31.9996L10.1485 31.9997L10.1508 27.5866L9.85076 27.5865ZM9.99854 32.1496H11.7985V31.8496H9.99854V32.1496ZM11.9485 31.9997L11.9508 27.5844L11.6508 27.5843L11.6485 31.9995L11.9485 31.9997ZM11.9506 27.5906L11.9628 27.2984L11.6631 27.2859L11.6509 27.5781L11.9506 27.5906ZM11.9619 27.31L11.9996 26.9953L11.7017 26.9596L11.664 27.2743L11.9619 27.31ZM11.9987 27.0016C12.2515 25.4509 13.4762 24.2406 15.0249 23.9952L14.9779 23.6989C13.3022 23.9644 11.9764 25.274 11.7026 26.9533L11.9987 27.0016ZM15.0189 23.996L15.325 23.96L15.29 23.6621L14.9839 23.698L15.0189 23.996ZM15.313 23.9609L15.6212 23.9495L15.6102 23.6497L15.3019 23.6611L15.313 23.9609ZM15.6157 23.9496L24.4166 23.9503L24.4166 23.6503L15.6157 23.6496L15.6157 23.9496ZM24.4098 23.9501L24.69 23.9628L24.7035 23.6631L24.4234 23.6504L24.4098 23.9501ZM24.6774 23.9617L24.9874 24.0021L25.0262 23.7046L24.7162 23.6642L24.6774 23.9617ZM24.9805 24.001C26.505 24.2726 27.7562 25.6077 28.0053 27.2215L28.3017 27.1757C28.0347 25.4451 26.6936 24.0015 25.0331 23.7057L24.9805 24.001ZM28.0045 27.2155L28.0405 27.5322L28.3386 27.4983L28.3025 27.1816L28.0045 27.2155ZM28.0396 27.5206L28.0502 27.8198L28.3501 27.8092L28.3395 27.5099L28.0396 27.5206ZM28.0501 27.8144L28.0479 31.9995L28.3479 31.9997L28.3501 27.8146L28.0501 27.8144ZM28.1979 32.1496H29.9998V31.8496H28.1979V32.1496ZM30.1498 31.9996L30.15 27.6115L29.85 27.6115L29.8498 31.9996L30.1498 31.9996ZM30.1499 27.6073L30.1409 27.2828L29.841 27.2911L29.85 27.6156L30.1499 27.6073ZM30.1404 27.2737L30.1104 26.937L29.8116 26.9636L29.8416 27.3002L30.1404 27.2737ZM30.11 26.9325C29.8016 24.3516 27.7713 22.3988 25.1376 22.0923L25.1029 22.3903C27.6057 22.6815 29.521 24.5318 29.8121 26.9681L30.11 26.9325ZM25.1332 22.0919L24.7794 22.0611L24.7535 22.36L25.1073 22.3907L25.1332 22.0919ZM24.7708 22.0606L24.3986 22.0499L24.3899 22.3498L24.7621 22.3605L24.7708 22.0606ZM20.0004 7.85043C16.3177 7.85043 13.2506 10.9175 13.2506 14.6002H13.5506C13.5506 11.0832 16.4834 8.15043 20.0004 8.15043V7.85043ZM13.2506 14.6002C13.2506 18.2829 16.3177 21.3499 20.0004 21.3499V21.0499C16.4834 21.0499 13.5506 18.1172 13.5506 14.6002H13.2506ZM20.0004 21.3499C23.6831 21.3499 26.7501 18.2829 26.7501 14.6002H26.4501C26.4501 18.1172 23.5174 21.0499 20.0004 21.0499V21.3499ZM26.7501 14.6002C26.7501 10.9175 23.6831 7.85043 20.0004 7.85043V8.15043C23.5174 8.15043 26.4501 11.0832 26.4501 14.6002H26.7501ZM20.0001 9.75042C22.7172 9.75042 24.85 11.8832 24.85 14.6002H25.15C25.15 11.7175 22.8829 9.45042 20.0001 9.45042V9.75042ZM24.85 14.6002C24.85 17.3173 22.7172 19.4501 20.0001 19.4501V19.7501C22.8829 19.7501 25.15 17.483 25.15 14.6002H24.85ZM20.0001 19.4501C17.2831 19.4501 15.1503 17.3173 15.1503 14.6002H14.8503C14.8503 17.483 17.1174 19.7501 20.0001 19.7501V19.4501ZM15.1503 14.6002C15.1503 11.8832 17.2831 9.75042 20.0001 9.75042V9.45042C17.1174 9.45042 14.8503 11.7175 14.8503 14.6002H15.1503Z" fill="#8FCA00"/>
</mask>
<g mask="url(#mask0)">
<rect width="40" height="40" fill="#8FCA00"/>
</g>
</svg>
